<svg height="512pt" viewBox="-73 0 512 512.00081" width="512pt" xmlns="http://www.w3.org/2000/svg" xmlns:xlink="http://www.w3.org/1999/xlink"><linearGradient id="a" gradientUnits="userSpaceOnUse" x1="137.9765870382" x2="243.6303422402" y1="389.745403684" y2="495.399158886"><stop offset="0" stop-color="#575c55"/><stop offset="1" stop-color="#45425a"/></linearGradient><linearGradient id="b" gradientUnits="userSpaceOnUse" x1="182.607847" x2="182.607847" y1="490.5410799358" y2="456.5794025978"><stop offset="0" stop-color="#45425a" stop-opacity="0"/><stop offset=".3474" stop-color="#353343" stop-opacity=".34902"/><stop offset="1" stop-color="#1a1a1a"/></linearGradient><radialGradient id="c" cx="56.6373207152" cy="34.856466879" gradientUnits="userSpaceOnUse" r="384.0139187314"><stop offset="0" stop-color="#ffe548"/><stop offset=".4644" stop-color="#ffe346"/><stop offset=".6598" stop-color="#ffdc3f"/><stop offset=".8046" stop-color="#ffd132"/><stop offset=".9238" stop-color="#ffc121"/><stop offset="1" stop-color="#ffb211"/></radialGradient><linearGradient id="d" gradientUnits="userSpaceOnUse" x1="223.239582106" x2="6.7512318288" y1="217.300717822" y2="-6.9193377382"><stop offset=".0013" stop-color="#e7eeed" stop-opacity="0"/><stop offset=".7731" stop-color="#f9fbfa" stop-opacity=".772549"/><stop offset="1" stop-color="#fff"/></linearGradient><linearGradient id="e"><stop offset="0" stop-color="#ffb211" stop-opacity="0"/><stop offset=".2281" stop-color="#ff9f19" stop-opacity=".227451"/><stop offset=".6863" stop-color="#ff6f2e" stop-opacity=".686275"/><stop offset="1" stop-color="#ff4b3e"/></linearGradient><linearGradient id="f" gradientUnits="userSpaceOnUse" x1="182.607847" x2="182.607847" xlink:href="#e" y1="376.794307923" y2="82.1308526824"/><linearGradient id="g"><stop offset="0" stop-color="#f2e9dc"/><stop offset=".2282" stop-color="#f0e4d7"/><stop offset=".5158" stop-color="#ead7c7"/><stop offset=".8338" stop-color="#e0c2ad"/><stop offset="1" stop-color="#dab49d"/></linearGradient><linearGradient id="h" gradientUnits="userSpaceOnUse" x1="182.1338954238" x2="182.1338954238" xlink:href="#g" y1="402.9170611084" y2="463.284196067"/><linearGradient id="i" gradientUnits="userSpaceOnUse" x1="186.6560620728" x2="155.4373004232" y1="419.6988220448" y2="270.177289562"><stop offset="0" stop-color="#972e07" stop-opacity="0"/><stop offset="1" stop-color="#582707"/></linearGradient><linearGradient id="j" gradientUnits="userSpaceOnUse" x1="182.6701905562" x2="182.6701905562" xlink:href="#e" y1="338.8287888646" y2="379.9389931958"/><linearGradient id="k" gradientUnits="userSpaceOnUse" x1="183.3408104522" x2="183.3408104522" xlink:href="#g" y1="381.7317971034" y2="417.544505825"/><linearGradient id="l" gradientUnits="userSpaceOnUse" x1="183.3408104522" x2="183.3408104522" xlink:href="#g" y1="437.9474134154" y2="473.760122137"/><path d="m260.230469 434.375c0 42.871094-34.753907 77.625-77.621094 77.625-42.871094 0-77.625-34.753906-77.625-77.625 0-42.867188 34.753906-77.621094 77.625-77.621094 42.867187 0 77.621094 34.753906 77.621094 77.621094zm0 0" fill="url(#a)"/><path d="m260.230469 434.375c0 42.871094-34.753907 77.625-77.621094 77.625-42.871094 0-77.625-34.753906-77.625-77.625 0-42.867188 34.753906-77.621094 77.625-77.621094 42.867187 0 77.621094 34.753906 77.621094 77.621094zm0 0" fill="url(#b)"/><path d="m365.214844 182.605469c0-98.753907-78.394532-179.203125-176.351563-182.5-102.71875-3.460938-188.8085935 79.621093-188.863281 182.402343-.0234375 45.085938 16.296875 86.355469 43.355469 118.21875 20.863281 24.566407 32.050781 55.898438 32.050781 88.128907v2.890625h214.402344v-2.894532c0-32.476562 11.59375-63.839843 32.515625-88.675781 26.761719-31.765625 42.890625-72.78125 42.890625-117.570312zm0 0" fill="url(#c)"/><path d="m335.671875 175.226562c0-84.492187-68.523437-152.984374-153.054687-152.984374s-153.058594 68.492187-153.058594 152.984374c0 84.492188 68.527344 152.988282 153.058594 152.988282s153.054687-68.496094 153.054687-152.988282zm0 0" fill="url(#d)"/><path d="m246.574219 221.796875h-2.300781c-13.738282 0-25.515626 9.804687-28.007813 23.308594l-3.179687 17.21875h-60.957032l-3.175781-17.21875c-2.496094-13.507813-14.273437-23.308594-28.007813-23.308594h-2.304687c-15.703125 0-28.480469 12.773437-28.480469 28.480469 0 15.703125 12.777344 28.480468 28.480469 28.480468h19.8125l20.855469 112.988282 16.15625-2.984375-20.300782-110.003907h54.890626l-20.304688 110.003907 16.15625 2.984375 20.855469-112.988282h19.8125c15.703125 0 28.480469-12.777343 28.480469-28.480468 0-15.707032-12.777344-28.480469-28.480469-28.480469zm-127.933594 40.527344c-6.644531 0-12.046875-5.402344-12.046875-12.046875 0-6.644532 5.402344-12.050782 12.046875-12.050782h2.304687c5.808594 0 10.792969 4.148438 11.847657 9.863282l2.628906 14.234375zm127.933594 0h-16.78125l2.628906-14.234375c1.054687-5.714844 6.039063-9.863282 11.851563-9.863282h2.300781c6.644531 0 12.046875 5.40625 12.046875 12.050782 0 6.644531-5.402344 12.046875-12.046875 12.046875zm0 0" fill="url(#f)"/><path d="m75.40625 388.855469h213.457031v57.933593h-213.457031zm0 0" fill="url(#h)"/><path d="m288.859375 388.855469h-213.453125v18.371093l39.5625 39.5625h173.890625zm0 0" fill="url(#i)"/><path d="m53.382812 314.183594c14.394532 22.078125 22.023438 48.066406 22.023438 74.671875v2.890625h214.402344v-2.894532c0-26.636718 7.800781-52.519531 22.152344-74.667968zm0 0" fill="url(#j)"/><path d="m287.015625 407.757812h-207.351563c-9.492187 0-17.183593-7.691406-17.183593-17.183593 0-9.492188 7.691406-17.1875 17.183593-17.1875h207.351563c9.492187 0 17.1875 7.695312 17.1875 17.1875 0 9.492187-7.695313 17.183593-17.1875 17.183593zm0 0" fill="url(#k)"/><path d="m287.015625 463.972656h-207.351563c-9.492187 0-17.183593-7.691406-17.183593-17.183594 0-9.492187 7.691406-17.183593 17.183593-17.183593h207.351563c9.492187 0 17.1875 7.691406 17.1875 17.183593 0 9.492188-7.695313 17.183594-17.1875 17.183594zm0 0" fill="url(#l)"/></svg>