<?xml version="1.0" encoding="UTF-8"?>
<!-- Generator: Adobe Illustrator 25.1.0, SVG Export Plug-In . SVG Version: 6.00 Build 0)  -->
<svg xmlns="http://www.w3.org/2000/svg" xmlns:xlink="http://www.w3.org/1999/xlink" version="1.1" id="Capa_1" x="0px" y="0px" viewBox="0 0 500 500" style="enable-background:new 0 0 500 500;" xml:space="preserve" width="512" height="512">
<g>
	<g>
		<path style="fill:#F7C67C;" d="M434.361,169.982c5.209-39.608-45.59-59.648-45.59-59.648    c-29.615-10.044-76.076,20.699-46.789,76.828c1.562,2.993,3.219,5.678,4.931,8.172l-6.526,21.726l18.734-8.619    C389.536,231.536,430.043,202.816,434.361,169.982z"/>
		<g>
			<circle style="fill:#FFFFFF;" cx="383.847" cy="164.417" r="26.187"/>
			<path style="fill:#251626;" d="M379.946,167.903c-0.453,0-0.861-0.31-0.966-0.77l-3.343-14.566     c-0.123-0.535,0.211-1.068,0.745-1.19c0.529-0.128,1.066,0.209,1.189,0.744l3.343,14.566c0.123,0.535-0.211,1.068-0.745,1.19     C380.094,167.895,380.02,167.903,379.946,167.903z"/>
			<path style="fill:#251626;" d="M388.109,165.41c-0.482,0-0.904-0.351-0.98-0.841l-2.095-13.558     c-0.083-0.541,0.288-1.049,0.83-1.132c0.54-0.079,1.049,0.289,1.132,0.83l2.095,13.558c0.083,0.541-0.288,1.049-0.83,1.132     C388.21,165.406,388.159,165.41,388.109,165.41z"/>
			<path style="fill:#251626;" d="M383.771,179.654c-10.767,0-15.494-14.781-15.544-14.942c-0.163-0.523,0.13-1.08,0.653-1.243     c0.52-0.157,1.079,0.13,1.243,0.653c0.048,0.153,4.95,15.444,15.701,13.341c10.802-2.13,10.226-19.608,10.219-19.785     c-0.022-0.549,0.404-1.01,0.952-1.033c0.534-0.033,1.009,0.405,1.031,0.952c0.032,0.791,0.634,19.358-11.818,21.812     C385.363,179.576,384.551,179.654,383.771,179.654z"/>
		</g>
	</g>
	<g>
		<path style="fill:#F2BA9B;" d="M193.48,224.956c0,0-134.595,78.901-127.979,89.416c6.617,10.514,114.969,50.364,114.969,50.364    l7.216-14.891l-85.131-37.95l103.503-57.147L193.48,224.956z"/>
		<path style="fill:#F2BA9B;" d="M302.74,357.533c0,0,73.936-22.895,82.932-35.956c13.975-20.288-114.708-96.622-114.708-96.622    l-24.395,22.619l113.54,66.797l-57.37,18.6V357.533z"/>
		<path style="fill:#F2BA9B;" d="M236.721,189.066v39.614l15.832-3.769c0,0-8.392,32.371-21.83,35.936    c-13.437,3.564-37.244-35.89-37.244-35.89l26.293,6.37l-5.641-42.261H236.721z"/>
		<path style="fill:#3D9C91;" d="M210.414,229.059c0,0,6.498,23.139,18.777,18.481s17.379-21.237,17.379-21.237    s39.114-10.825,43.21,5.788c4.096,16.614-8.643,129.964-8.643,129.964l-100.666,2.681c0,0-26.924-127.095-9.455-136.411    S210.414,229.059,210.414,229.059z"/>
		<path style="fill:#3D9C91;" d="M109.293,269.601l26.368,42.294l60.391-37.509l-14.765-49.475    C181.287,224.911,152.715,227.605,109.293,269.601z"/>
		<path style="fill:#3D9C91;" d="M353.713,269.601l-35.832,37.332l-39.146-27.845l-1.257-55.768    C277.479,223.32,317.882,229.489,353.713,269.601z"/>
		<path style="fill:#757A91;" d="M275.653,60.193c0,0-14.956-60.241-62.641-60.193c-47.616,0.048-74.058,24.599-63.213,77.498    L275.653,60.193z"/>
		<path style="fill:#251426;" d="M153.454,449.904l-35.26,7.573l2.339,9.41l9.672-5.561c0,0-13.508,7.739,1.232,29.179    c0,0,1.744-35.455,27.469-23.565L153.454,449.904z"/>
		<polygon style="fill:#757A91;" points="289.139,331.463 361.452,447.697 156.649,500 142.994,447.109 281.519,415.731     256.215,361.48   "/>
		<polygon style="fill:#757A91;" points="181.287,316.892 195.265,357.533 275.967,357.533 283.588,314.372   "/>
		<path style="fill:#F2BA9B;" d="M166.879,69.454c0,0,46.052-46.856,94.581-20.154c36.308,19.978,21.883,148.829-39.258,141.616    C178.863,185.804,147.479,96.497,166.879,69.454z"/>
		<path style="fill:#DD7C2E;" d="M166.879,69.454c0,0,4.47,84.013,25.035,91.904c36.908,14.163-12.4-34.202,38.835-31.174    c32.853,1.941,3.491,29.475,31.518,22.522c21.079-5.229,5.242-96.101,2.524-101.101c-2.718-5,35.326,17.465,17.674,74.369    c-5.92,19.085,41.298,31.559,5.388,60.742c-63.751,51.808-152.276,4.71-129.836-24.082    C188.89,123.025,111.115,119.499,166.879,69.454z"/>
		<path style="fill:#251626;" d="M243.591,129.952c-0.084,0-0.171-0.006-0.258-0.017c-4.274-0.609-18.176-4.059-18.765-4.207    c-0.532-0.132-0.856-0.671-0.724-1.204c0.132-0.531,0.672-0.857,1.203-0.723c0.139,0.035,13.47,3.344,18.122,4.1    c-0.117-3.055-6.936-16.993-13.85-29.421c-0.267-0.479-0.094-1.084,0.385-1.349c0.482-0.269,1.085-0.093,1.35,0.384    c5.951,10.697,15.652,29.055,13.759,31.807C244.532,129.731,244.096,129.952,243.591,129.952z"/>
		<path style="fill:#251626;" d="M223.909,163.746c-0.595,0-1.164-0.198-1.677-0.589c-4.355-3.328-3.969-22.665-3.911-24.86    c0.015-0.549,0.536-0.948,1.019-0.965c0.548,0.016,0.981,0.471,0.966,1.02c-0.209,7.896,0.456,21.184,3.132,23.227    c0.239,0.186,0.453,0.221,0.739,0.14c4.453-1.341,12.16-15.353,14.755-20.641c0.241-0.49,0.836-0.69,1.328-0.454    c0.492,0.242,0.695,0.837,0.454,1.33c-0.993,2.024-9.884,19.835-15.965,21.665C224.466,163.704,224.185,163.746,223.909,163.746z"/>
		<path style="fill:#251626;" d="M205.066,107.638c-0.008,0-0.016,0-0.022,0c-4.47-0.041-7.034-12.901-7.713-16.842    c-0.093-0.541,0.269-1.053,0.809-1.148c0.535-0.089,1.054,0.269,1.147,0.81c1.264,7.324,3.887,15.177,5.775,15.194    c0.002,0,0.004,0,0.006,0c1.777,0,3.264-7.876,3.49-14.954c0.016-0.549,0.402-0.944,1.024-0.962    c0.548,0.017,0.977,0.477,0.96,1.024C210.414,94.725,209.647,107.638,205.066,107.638z"/>
		<path style="fill:#251626;" d="M251.851,107.165c-0.008,0-0.016,0-0.022,0c-4.346-0.041-9.191-12.796-10.572-16.704    c-0.183-0.518,0.088-1.084,0.605-1.268c0.52-0.182,1.085,0.089,1.266,0.605c2.61,7.384,6.686,15.363,8.719,15.382    c0.002,0,0.004,0,0.006,0c1.777,0,3.265-7.876,3.491-14.954c0.017-0.549,0.428-0.965,1.024-0.962    c0.548,0.017,0.977,0.477,0.96,1.024C257.201,94.252,256.433,107.165,251.851,107.165z"/>
		<circle style="fill:#F2BA9B;" cx="149.799" cy="115.571" r="12.329"/>
		<circle style="fill:#F2BA9B;" cx="291.241" cy="100.784" r="11.499"/>
		<path style="fill:#251626;" d="M154.146,122.689c-0.014,0-0.027,0-0.041,0c-0.548-0.023-0.974-0.485-0.952-1.033    c0.124-3.092-0.612-5.284-2.188-6.517c-2.751-2.148-7.3-0.859-7.344-0.849c-0.524,0.159-1.076-0.147-1.231-0.673    c-0.154-0.525,0.146-1.076,0.672-1.231c0.223-0.068,5.554-1.593,9.118,1.183c2.113,1.648,3.107,4.397,2.956,8.169    C155.115,122.27,154.675,122.689,154.146,122.689z"/>
		<path style="fill:#251626;" d="M289.637,110.04c-0.417,0-0.804-0.264-0.942-0.682c-1.601-4.854-1.503-8.479,0.292-10.772    c2.059-2.631,5.503-2.392,5.652-2.39c0.546,0.043,0.956,0.52,0.914,1.066s-0.526,0.94-1.06,0.915l0,0    c-0.024,0-2.559-0.151-3.953,1.646c-1.331,1.718-1.317,4.8,0.04,8.915c0.173,0.52-0.111,1.082-0.631,1.252    C289.844,110.024,289.74,110.04,289.637,110.04z"/>
		<circle style="fill:#EA7C71;" cx="189.686" cy="124.167" r="11.754"/>
		<circle style="fill:#EA7C71;" cx="258.324" cy="119.182" r="11.754"/>
		<path style="fill:#251626;" d="M213.181,204.998c-9.319,0-14.17-5.377-16.334-10.642c-2.496,1.415-6.338,2.462-12.255,2.099    c-11.722-0.702-16.65-9.528-17.354-17.553c0-0.004,0-0.008-0.001-0.01c-1.778,0.128-3.674-0.295-5.582-1.303    c-4.049-2.138-5.697-6.591-4.643-12.538c0.532-2.993,1.696-6.093,3.181-8.84c-3.57-1.429-4.565-4.152-4.702-6.422    c-0.203-3.367,1.433-7.426,3.589-10.889c-1.248-0.682-2.128-1.663-2.624-2.929c-1.818-4.635,2.446-11.408,2.63-11.693    c0.295-0.459,0.906-0.595,1.37-0.304c0.462,0.295,0.598,0.909,0.304,1.371c-1.091,1.716-3.659,6.837-2.455,9.904    c0.341,0.868,0.961,1.526,1.88,1.991c2.248-3.169,4.788-5.56,6.38-5.961c1.281-0.322,2.398,0.052,3.068,1.025    c0.915,1.33,0.737,3.423-0.435,5.094c-0.782,1.115-3.143,3.567-8.209,2.241c-0.005,0-0.01-0.002-0.015-0.004    c-2.034,3.183-3.685,6.981-3.501,10.036c0.142,2.365,1.369,3.953,3.73,4.804c2.383-3.809,5.318-6.626,7.789-6.959    c2.37-0.33,4.8,0.737,6.021,2.634c0.911,1.417,0.965,3.038,0.146,4.335c-0.877,1.394-3.553,3.577-11.621,2.549    c-0.489-0.062-0.951-0.142-1.384-0.235c-1.462,2.609-2.662,5.637-3.187,8.599c-0.631,3.557-0.517,8.254,3.614,10.435    c1.764,0.934,3.289,1.186,4.566,1.07c-0.013-5.288,1.828-9.508,4.6-10.171c1.474-0.355,2.685,0.093,3.327,1.219    c1.156,2.028,0.105,5.736-2.345,8.264c-1.053,1.088-2.247,1.849-3.533,2.282c0.006,0.078,0.013,0.155,0.019,0.233    c0.631,7.2,5.032,15.119,15.494,15.745c5.772,0.349,9.31-0.688,11.465-2.016c-0.385-1.291-0.615-2.532-0.718-3.639    c-0.367-3.933,0.619-6.672,2.515-6.981c1.029-0.174,2.04,0.32,2.755,1.34c1.105,1.576,1.56,4.585-0.052,7.469    c-0.426,0.762-1.098,1.675-2.147,2.551c1.89,4.891,6.422,10.106,15.222,9.807c5.011-0.126,9.088-2.043,12.143-4.616    c-0.736-0.502-1.315-1.016-1.765-1.489c-2.335-2.448-3.178-5.786-2.255-8.929c0.91-3.1,3.358-5.414,6.548-6.188    c2.748-0.659,4.232,0.287,4.993,1.208c1.546,1.871,1.436,5.379-0.285,9.16c-0.868,1.904-2.173,3.924-3.895,5.783    c3.227,1.307,8.458,1.948,16.794-0.076c8.607-2.088,12.924-5.143,15.08-7.816c-3.123-1.093-5.397-3.065-6.044-5.362    c-0.563-1.999,0.164-4.022,2.048-5.697c1.371-1.219,3.15-1.448,4.758-0.599c2.316,1.215,3.665,4.242,3.28,7.361    c-0.094,0.768-0.335,1.824-0.918,3.038c2.781,0.434,10.824,0.764,17.085-7.834c1.533-2.105,2.711-3.997,3.59-5.682    c-1.94-0.983-3.606-2.317-4.739-3.724c-2.167-2.695-2.257-5.416-0.236-7.103c2.477-2.068,5.651-2.278,7.546-0.502    c0.91,0.851,2.971,3.693,0.118,10.303c2.962,0.989,6.306,0.95,8.953-1.101c3.396-2.636,3.931-9.381,1.302-16.398    c-1.356-3.621-3.771-7.56-7.022-9.966c-0.394,1.316-1.126,2.346-2.306,2.902c-3.199,1.512-6.54,0.496-8.291-1.086    c-1.224-1.105-1.708-2.466-1.294-3.642c0.351-0.996,1.462-2.223,4.757-2.412c1.974-0.118,3.834,0.269,5.523,1.014    c-0.059-2.051-0.609-4.647-1.646-7.442c-0.61-1.644-1.323-3.164-2.082-4.488c-1.329,0.735-2.904,0.905-4.545,0.44    c-2.513-0.713-4.477-2.724-4.47-4.579c0.002-0.644,0.271-2.208,2.718-2.885c2.333-0.628,4.711,1.142,6.737,3.989    c0.067-0.095,0.133-0.196,0.197-0.3c3.54-5.79-4.222-13.196-4.301-13.269c-0.399-0.374-0.419-1.002-0.044-1.402    c0.374-0.403,1.003-0.421,1.402-0.047c0.37,0.349,9.018,8.586,4.637,15.752c-0.231,0.376-0.484,0.719-0.758,1.027    c0.906,1.553,1.712,3.292,2.37,5.067c1.099,2.964,1.887,6.393,1.744,9.194c4.021,2.602,6.953,7.213,8.533,11.431    c2.478,6.616,2.839,14.952-1.943,18.662c-3.38,2.627-7.49,2.619-11.032,1.349c-0.917,1.778-2.159,3.79-3.813,6.06    c-4.859,6.667-12.093,9.867-19.354,8.568c-0.141-0.025-0.28-0.05-0.418-0.079c-2.254,3.158-6.944,6.827-16.653,9.185    c-9.412,2.282-15.249,1.299-18.778-0.363c-3.416,3.071-8.093,5.418-13.918,5.564C213.592,204.996,213.384,204.998,213.181,204.998    z M230.138,183.547c-0.373,0-0.79,0.056-1.249,0.169c-2.493,0.603-4.403,2.404-5.112,4.817c-0.72,2.452-0.052,5.069,1.787,7    c0.446,0.467,1.041,0.979,1.823,1.469c1.761-1.803,3.08-3.799,3.934-5.674c1.362-2.989,1.588-5.831,0.561-7.072    C231.493,183.783,230.908,183.547,230.138,183.547z M198.364,183.791c-0.024,0-0.048,0.002-0.074,0.006    c-0.356,0.058-1.157,1.634-0.858,4.839c0.072,0.766,0.211,1.603,0.432,2.479c0.488-0.504,0.833-0.998,1.076-1.434    c1.142-2.043,0.944-4.243,0.16-5.362C198.959,184.115,198.682,183.791,198.364,183.791z M259.884,179.861    c-0.45,0-0.949,0.155-1.456,0.607c-1.321,1.175-1.812,2.412-1.456,3.673c0.497,1.764,2.536,3.344,5.276,4.187    c0.606-1.136,0.843-2.125,0.93-2.826c0.318-2.584-0.883-4.652-2.233-5.362C260.653,179.987,260.29,179.861,259.884,179.861z     M172.699,168.597c-0.133,0-0.295,0.019-0.49,0.066c-1.525,0.364-2.96,3.478-3.069,7.715c0.94-0.426,1.661-1.025,2.163-1.543    c2.079-2.146,2.601-4.93,2.046-5.901C173.287,168.823,173.158,168.597,172.699,168.597z M284.289,164.714    c-0.986,0-2.098,0.426-3.085,1.25c-1.608,1.341-0.178,3.478,0.511,4.335c0.98,1.217,2.407,2.346,4.052,3.177    c1.871-4.298,1.559-6.963,0.356-8.089C285.639,164.935,284.996,164.714,284.289,164.714z M163.253,154.986    c0.173,0.029,0.353,0.054,0.535,0.078c7.439,0.95,9.3-1.014,9.693-1.638c0.552-0.872,0.15-1.754-0.137-2.202    c-0.677-1.051-2.199-1.985-4.086-1.743C167.587,149.708,165.284,151.896,163.253,154.986z M284.374,144.505    c-0.188,0-0.376,0.006-0.567,0.016c-1.966,0.112-2.837,0.638-2.997,1.089c-0.135,0.384,0.16,0.975,0.751,1.51    c1.277,1.153,3.736,1.884,6.114,0.764c0.703-0.331,1.166-1.107,1.39-2.208C287.628,144.937,286.059,144.505,284.374,144.505z     M162.182,137.875c2.401,0.454,4.342-0.12,5.391-1.617c0.739-1.055,0.796-2.289,0.425-2.828c-0.074-0.109-0.274-0.397-0.948-0.225    C166.003,133.467,164.053,135.332,162.182,137.875z M280.133,126.459c-0.142,0-0.281,0.019-0.414,0.056    c-0.574,0.157-1.258,0.456-1.26,0.975c-0.003,0.851,1.29,2.171,3.026,2.662c0.72,0.205,1.848,0.351,2.945-0.209    C282.929,127.787,281.36,126.459,280.133,126.459z"/>
		<path style="fill:#251426;" d="M318.287,427.67l35.437,6.693l-2.104,9.466l-9.808-5.318c0,0,13.697,7.4-0.505,29.2    c0,0-2.626-35.4-28.047-22.874L318.287,427.67z"/>
		<polygon style="fill:#757A91;" points="177.277,340.327 76.099,441.836 320.545,457.872 333.493,409.41 162.152,419.349     209.369,378.903   "/>
		<path style="fill:#251626;" d="M320.547,458.863c-0.02,0-0.041,0-0.061-0.002l-177.552-10.763    c-0.547-0.033-0.963-0.504-0.93-1.051s0.521-0.987,1.051-0.931l176.706,10.71l10.231-46.222l-56.824,3.297    c-0.532,0.048-1.017-0.386-1.048-0.932c-0.032-0.549,0.386-1.018,0.933-1.049l58.133-3.373c0.302-0.031,0.611,0.109,0.813,0.347    c0.202,0.237,0.28,0.554,0.213,0.859l-10.697,48.331C321.414,458.542,321.009,458.863,320.547,458.863z"/>
		<polygon style="fill:#E9546A;" points="159.815,392.266 141.644,281.561 316.737,274.315 308.669,392.266   "/>
		<path style="fill:#757A91;" d="M146.129,98.637c0,0,82.242-41.284,139.08-17.995l3.345-25.764c0,0-78.454-63.078-151.084,27.041    L146.129,98.637z"/>
		<path style="fill:#251626;" d="M149.801,66.256c-0.297,0-0.588-0.132-0.784-0.384c-0.337-0.432-0.259-1.056,0.173-1.392    c0.677-0.527,68.292-52.317,119.905-23.77c0.48,0.266,0.653,0.868,0.388,1.349c-0.267,0.481-0.868,0.649-1.349,0.388    c-50.479-27.923-117.058,23.082-117.725,23.6C150.228,66.188,150.013,66.256,149.801,66.256z"/>
		<path style="fill:#251626;" d="M166.006,91.122c-0.405,0-0.786-0.25-0.932-0.653l-9.539-26.219    c-0.188-0.516,0.078-1.084,0.593-1.272c0.513-0.186,1.085,0.078,1.272,0.593l9.538,26.219c0.188,0.516-0.078,1.084-0.593,1.272    C166.233,91.102,166.118,91.122,166.006,91.122z"/>
		<path style="fill:#251626;" d="M193.479,82.14c-0.417,0-0.804-0.264-0.942-0.68L180.95,46.514c-0.173-0.52,0.11-1.082,0.63-1.254    c0.52-0.174,1.081,0.11,1.254,0.63l11.588,34.946c0.173,0.52-0.11,1.082-0.63,1.254C193.688,82.125,193.583,82.14,193.479,82.14z"/>
		<path style="fill:#251626;" d="M223.792,76.536c-0.461,0-0.875-0.324-0.971-0.793l-8.09-39.523    c-0.111-0.537,0.236-1.062,0.773-1.173c0.532-0.112,1.061,0.238,1.171,0.773l8.09,39.523c0.11,0.537-0.237,1.062-0.773,1.173    C223.925,76.53,223.858,76.536,223.792,76.536z"/>
		<path style="fill:#251626;" d="M244.146,74.522c-0.021,0-0.043,0-0.065-0.002c-0.547-0.035-0.962-0.508-0.927-1.055l2.425-37.722    c0.035-0.547,0.491-0.981,1.055-0.927c0.547,0.035,0.962,0.508,0.927,1.055l-2.425,37.722    C245.101,74.119,244.665,74.522,244.146,74.522z"/>
		<path style="fill:#251626;" d="M265.532,76.131c-0.048,0-0.098-0.004-0.148-0.012c-0.542-0.079-0.915-0.585-0.835-1.128    l4.548-30.386c0.081-0.541,0.582-0.913,1.129-0.834c0.542,0.079,0.915,0.585,0.835,1.128l-4.548,30.386    C266.44,75.778,266.016,76.131,265.532,76.131z"/>
		<polygon style="fill:#FFFFFF;" points="224.474,329.353 231.589,316.343 236.028,329.76 251.225,331.906 237.578,338.711     240.125,355.562 230.198,341.14 215.715,352.114 221.222,337.421 207.887,330.974   "/>
		<path style="fill:#251626;" d="M234.476,17.798c-0.416,0-0.804-0.263-0.942-0.678c-0.618-1.859-4.264-3.994-5.492-4.595    c-0.492-0.241-0.696-0.836-0.456-1.328c0.241-0.491,0.835-0.697,1.328-0.456c0.561,0.275,5.51,2.771,6.504,5.751    c0.173,0.52-0.109,1.083-0.628,1.256C234.686,17.781,234.58,17.798,234.476,17.798z"/>
		<path style="fill:#251626;" d="M222.288,10.332c-0.416,0-0.804-0.263-0.942-0.678c-0.618-1.859-4.264-3.994-5.492-4.595    c-0.492-0.241-0.696-0.836-0.456-1.328c0.242-0.491,0.837-0.694,1.328-0.456c0.561,0.275,5.51,2.771,6.504,5.751    c0.173,0.52-0.109,1.083-0.628,1.256C222.497,10.315,222.391,10.332,222.288,10.332z"/>
		<path style="fill:#251626;" d="M248.356,27.536c-0.416,0-0.803-0.264-0.941-0.678c-0.62-1.859-4.265-3.994-5.493-4.595    c-0.492-0.241-0.696-0.836-0.456-1.328c0.241-0.491,0.838-0.695,1.328-0.456c0.561,0.275,5.509,2.771,6.503,5.751    c0.173,0.52-0.108,1.082-0.627,1.256C248.565,27.521,248.46,27.536,248.356,27.536z"/>
		<path style="fill:#251626;" d="M227.807,24.95c-0.416,0-0.804-0.263-0.942-0.678c-0.62-1.863-4.175-3.949-5.492-4.596    c-0.491-0.241-0.695-0.836-0.454-1.328c0.241-0.49,0.837-0.693,1.327-0.455c0.561,0.275,5.509,2.771,6.503,5.751    c0.173,0.52-0.109,1.083-0.628,1.256C228.016,24.934,227.91,24.95,227.807,24.95z"/>
		<path style="fill:#251626;" d="M214.516,14.013c-0.416,0-0.803-0.263-0.941-0.678c-0.62-1.859-4.265-3.994-5.493-4.595    c-0.492-0.241-0.696-0.836-0.456-1.328c0.241-0.491,0.838-0.695,1.328-0.456c0.561,0.275,5.509,2.771,6.503,5.751    c0.173,0.52-0.108,1.083-0.627,1.255C214.726,13.996,214.62,14.013,214.516,14.013z"/>
		<path style="fill:#251626;" d="M307.434,243.137c-0.307,0-0.611-0.142-0.805-0.409c-1.152-1.59-5.171-2.508-6.623-2.728    c-0.542-0.081-0.915-0.587-0.833-1.128c0.08-0.541,0.589-0.917,1.128-0.834c0.618,0.093,6.09,0.979,7.934,3.522    c0.322,0.444,0.223,1.064-0.221,1.386C307.84,243.075,307.635,243.137,307.434,243.137z"/>
		<path style="fill:#251626;" d="M319.236,251.945c-0.307,0-0.61-0.142-0.805-0.409c-1.152-1.588-5.172-2.507-6.623-2.728    c-0.542-0.081-0.915-0.587-0.833-1.128c0.08-0.543,0.579-0.919,1.129-0.834c0.617,0.093,6.089,0.981,7.933,3.522    c0.322,0.444,0.223,1.064-0.22,1.386C319.642,251.883,319.438,251.945,319.236,251.945z"/>
		<path style="fill:#251626;" d="M293.561,239.69c-0.307,0-0.61-0.142-0.804-0.409c-1.152-1.588-5.172-2.507-6.623-2.727    c-0.542-0.081-0.915-0.587-0.833-1.128c0.081-0.541,0.578-0.913,1.129-0.834c0.617,0.093,6.089,0.981,7.933,3.522    c0.322,0.444,0.223,1.064-0.22,1.386C293.968,239.628,293.763,239.69,293.561,239.69z"/>
		<path style="fill:#251626;" d="M277.406,234.768c-0.307,0-0.61-0.142-0.805-0.409c-1.152-1.588-5.172-2.507-6.623-2.728    c-0.542-0.081-0.915-0.587-0.833-1.128c0.081-0.543,0.576-0.921,1.129-0.834c0.617,0.093,6.089,0.981,7.933,3.522    c0.322,0.444,0.223,1.064-0.22,1.386C277.812,234.706,277.607,234.768,277.406,234.768z"/>
		<path style="fill:#251626;" d="M303.23,251.967c-0.307,0-0.611-0.142-0.804-0.409c-1.151-1.588-5.27-2.526-6.623-2.729    c-0.542-0.081-0.915-0.587-0.834-1.128c0.082-0.541,0.577-0.919,1.13-0.834c0.617,0.093,6.089,0.983,7.933,3.524    c0.322,0.444,0.223,1.064-0.221,1.386C303.636,251.905,303.431,251.967,303.23,251.967z"/>
		<path style="fill:#251626;" d="M287.26,245.542c-0.307,0-0.61-0.142-0.805-0.409c-1.151-1.586-5.269-2.524-6.622-2.727    c-0.542-0.081-0.915-0.587-0.834-1.128c0.083-0.541,0.579-0.911,1.13-0.834c0.617,0.093,6.088,0.983,7.932,3.522    c0.322,0.444,0.223,1.064-0.22,1.386C287.666,245.48,287.462,245.542,287.26,245.542z"/>
		<path style="fill:#251626;" d="M146.775,250.649c-0.163,0-0.328-0.041-0.48-0.124c-0.48-0.266-0.653-0.868-0.388-1.349    c1.519-2.747,6.841-4.298,7.443-4.464c0.528-0.149,1.075,0.161,1.222,0.688c0.147,0.529-0.161,1.076-0.689,1.223    c-1.413,0.395-5.29,1.799-6.239,3.515C147.464,250.464,147.125,250.649,146.775,250.649z"/>
		<path style="fill:#251626;" d="M136.137,260.835c-0.163,0-0.328-0.041-0.48-0.124c-0.48-0.266-0.653-0.868-0.388-1.349    c1.52-2.749,6.841-4.3,7.443-4.466c0.523-0.143,1.076,0.161,1.222,0.688c0.147,0.529-0.161,1.076-0.689,1.223    c-1.413,0.395-5.289,1.799-6.239,3.517C136.825,260.651,136.487,260.835,136.137,260.835z"/>
		<path style="fill:#251626;" d="M160.122,245.533c-0.163,0-0.328-0.041-0.48-0.124c-0.48-0.266-0.653-0.87-0.388-1.349    c1.521-2.747,6.841-4.298,7.443-4.464c0.524-0.145,1.076,0.161,1.222,0.688c0.147,0.529-0.161,1.076-0.689,1.223    c-1.413,0.395-5.289,1.799-6.239,3.515C160.81,245.349,160.471,245.533,160.122,245.533z"/>
		<path style="fill:#251626;" d="M175.555,238.674c-0.163,0-0.328-0.041-0.48-0.124c-0.48-0.266-0.653-0.868-0.388-1.349    c1.52-2.749,6.842-4.3,7.444-4.466c0.526-0.151,1.076,0.161,1.222,0.688c0.147,0.529-0.161,1.076-0.689,1.223    c-1.413,0.395-5.29,1.799-6.24,3.516C176.243,238.49,175.905,238.674,175.555,238.674z"/>
		<path style="fill:#251626;" d="M152.026,258.899c-0.163,0-0.328-0.041-0.48-0.124c-0.48-0.266-0.653-0.868-0.388-1.349    c1.52-2.749,6.841-4.3,7.443-4.466c0.526-0.149,1.076,0.161,1.222,0.688c0.147,0.529-0.161,1.076-0.689,1.223    c-1.413,0.395-5.289,1.799-6.239,3.516C152.714,258.715,152.376,258.899,152.026,258.899z"/>
		<path style="fill:#251626;" d="M167.091,250.573c-0.163,0-0.328-0.041-0.48-0.124c-0.48-0.266-0.653-0.868-0.388-1.349    c1.52-2.749,6.841-4.3,7.443-4.466c0.522-0.147,1.076,0.161,1.222,0.688c0.147,0.529-0.161,1.076-0.689,1.223    c-1.413,0.395-5.289,1.799-6.239,3.516C167.779,250.389,167.441,250.573,167.091,250.573z"/>
		<path style="fill:#251626;" d="M228.037,253.438c-0.064,0-0.126,0-0.19,0c-20.945-0.157-22.764-22.493-22.78-22.718    c-0.039-0.547,0.372-1.02,0.919-1.058c0.546-0.05,1.021,0.372,1.06,0.919c0.062,0.845,1.718,20.731,20.816,20.872    c0.056,0,0.114,0,0.171,0c19.038,0,22.749-23.803,22.784-24.044c0.079-0.543,0.574-0.907,1.126-0.839    c0.542,0.079,0.917,0.585,0.837,1.126C252.744,227.956,248.763,253.438,228.037,253.438z"/>
		<path style="fill:#251626;" d="M319.035,335.381c-0.325,0-0.644-0.159-0.834-0.452c-0.299-0.459-0.168-1.076,0.292-1.372    c0.238-0.153,5.873-3.77,9.736-3.005c0.538,0.105,0.888,0.628,0.782,1.165c-0.106,0.539-0.626,0.89-1.166,0.781    c-2.572-0.5-6.841,1.793-8.271,2.722C319.407,335.329,319.22,335.381,319.035,335.381z"/>
		<path style="fill:#251626;" d="M321.179,342.796c-0.325,0-0.644-0.159-0.834-0.452c-0.299-0.459-0.168-1.074,0.292-1.372    c0.238-0.155,5.872-3.772,9.735-3.005c0.538,0.105,0.888,0.628,0.782,1.165c-0.106,0.539-0.632,0.894-1.166,0.781    c-2.569-0.508-6.84,1.795-8.27,2.722C321.551,342.744,321.364,342.796,321.179,342.796z"/>
		<path style="fill:#251626;" d="M332.001,333.125c-0.325,0-0.644-0.159-0.834-0.452c-0.299-0.459-0.168-1.076,0.292-1.372    c0.237-0.153,5.873-3.768,9.736-3.005c0.538,0.105,0.888,0.628,0.782,1.165c-0.106,0.539-0.627,0.89-1.166,0.781    c-2.569-0.5-6.841,1.793-8.271,2.722C332.374,333.073,332.187,333.125,332.001,333.125z"/>
		<path style="fill:#251626;" d="M339.94,336.275c-0.325,0-0.644-0.159-0.834-0.452c-0.299-0.461-0.168-1.074,0.292-1.372    c0.238-0.155,5.882-3.768,9.736-3.005c0.538,0.107,0.888,0.628,0.782,1.165c-0.107,0.537-0.633,0.892-1.166,0.781    c-2.563-0.498-6.838,1.793-8.272,2.724C340.312,336.223,340.125,336.275,339.94,336.275z"/>
		<path style="fill:#251626;" d="M343.382,326.974c-0.325,0-0.644-0.159-0.834-0.452c-0.299-0.461-0.168-1.074,0.292-1.372    c0.238-0.155,5.875-3.776,9.736-3.005c0.538,0.107,0.888,0.628,0.782,1.165c-0.107,0.539-0.634,0.894-1.166,0.781    c-2.566-0.498-6.838,1.793-8.272,2.724C343.754,326.922,343.567,326.974,343.382,326.974z"/>
		<path style="fill:#251626;" d="M122.944,328.352c-0.322,0-0.637-0.155-0.829-0.444c-1.445-2.181-6.085-3.602-7.75-3.966    c-0.536-0.116-0.875-0.646-0.758-1.181c0.116-0.537,0.649-0.872,1.181-0.758c0.277,0.06,6.801,1.518,8.983,4.808    c0.302,0.457,0.177,1.074-0.279,1.376C123.323,328.298,123.132,328.352,122.944,328.352z"/>
		<path style="fill:#251626;" d="M124.091,336.564c-0.322,0-0.638-0.155-0.829-0.444c-1.444-2.181-6.084-3.602-7.75-3.966    c-0.536-0.116-0.875-0.646-0.758-1.181c0.116-0.535,0.65-0.874,1.181-0.758c0.277,0.06,6.802,1.518,8.983,4.808    c0.302,0.457,0.177,1.074-0.279,1.376C124.47,336.51,124.279,336.564,124.091,336.564z"/>
		<path style="fill:#251626;" d="M133.666,335.986c-0.322,0-0.637-0.155-0.829-0.444c-1.445-2.181-6.085-3.604-7.751-3.968    c-0.535-0.116-0.874-0.646-0.757-1.181c0.116-0.537,0.646-0.878,1.182-0.758c0.276,0.06,6.8,1.52,8.982,4.809    c0.302,0.458,0.177,1.074-0.279,1.376C134.045,335.932,133.854,335.986,133.666,335.986z"/>
		<path style="fill:#251626;" d="M137.009,343.845c-0.322,0-0.638-0.157-0.829-0.444c-1.444-2.181-6.085-3.604-7.751-3.968    c-0.535-0.116-0.874-0.646-0.757-1.181c0.116-0.539,0.641-0.878,1.182-0.758c0.276,0.06,6.801,1.52,8.982,4.809    c0.302,0.457,0.177,1.074-0.279,1.376C137.388,343.791,137.197,343.845,137.009,343.845z"/>
		<path style="fill:#251626;" d="M146.043,339.751c-0.322,0-0.637-0.155-0.829-0.444c-1.445-2.181-6.085-3.602-7.75-3.966    c-0.536-0.116-0.875-0.646-0.758-1.181c0.116-0.535,0.65-0.874,1.181-0.758c0.277,0.06,6.801,1.518,8.983,4.808    c0.302,0.457,0.177,1.074-0.279,1.376C146.422,339.697,146.231,339.751,146.043,339.751z"/>
		<path style="fill:#251626;" d="M223.504,442.811c-3.58,0-7.16-0.634-7.388-0.675c-0.539-0.097-0.898-0.615-0.801-1.153    c0.096-0.537,0.604-0.892,1.153-0.801c0.079,0.014,8.022,1.425,11.533,0.052c0.509-0.2,1.086,0.054,1.285,0.564    c0.2,0.51-0.053,1.086-0.564,1.285C227.323,442.63,225.414,442.811,223.504,442.811z"/>
		<path style="fill:#251626;" d="M197.899,442.481c-3.58,0-7.16-0.634-7.388-0.675c-0.539-0.097-0.898-0.615-0.801-1.153    c0.096-0.539,0.604-0.89,1.153-0.801c0.079,0.014,8.024,1.425,11.533,0.052c0.508-0.204,1.085,0.054,1.285,0.564    c0.2,0.51-0.053,1.086-0.564,1.285C201.718,442.301,199.809,442.481,197.899,442.481z"/>
		<path style="fill:#251626;" d="M207.429,435.027c-3.58,0-7.16-0.634-7.388-0.675c-0.539-0.097-0.898-0.615-0.801-1.153    s0.609-0.89,1.153-0.801c0.079,0.014,8.025,1.421,11.533,0.052c0.506-0.204,1.086,0.054,1.285,0.564    c0.2,0.51-0.053,1.086-0.564,1.285C211.248,434.847,209.338,435.027,207.429,435.027z"/>
		<path style="fill:#251626;" d="M230.367,435.357c-3.58,0-7.16-0.634-7.388-0.675c-0.539-0.097-0.898-0.615-0.801-1.153    c0.096-0.537,0.604-0.892,1.153-0.801c0.079,0.014,8.023,1.425,11.533,0.052c0.508-0.204,1.085,0.054,1.285,0.564    c0.2,0.51-0.053,1.086-0.564,1.285C234.185,435.177,232.276,435.357,230.367,435.357z"/>
		<path style="fill:#251626;" d="M242.437,446.027c-3.58,0-7.16-0.634-7.388-0.675c-0.539-0.097-0.898-0.615-0.801-1.153    c0.097-0.539,0.609-0.89,1.153-0.801c0.079,0.014,8.022,1.425,11.533,0.052c0.507-0.204,1.085,0.054,1.285,0.564    c0.2,0.51-0.053,1.086-0.564,1.285C246.256,445.846,244.346,446.027,242.437,446.027z"/>
		<path style="fill:#251626;" d="M251.677,440.075c-3.58,0-7.16-0.634-7.388-0.675c-0.539-0.097-0.898-0.615-0.801-1.153    c0.097-0.537,0.604-0.892,1.153-0.801c0.079,0.016,8.025,1.423,11.533,0.052c0.508-0.202,1.086,0.052,1.285,0.564    c0.2,0.51-0.053,1.086-0.564,1.285C255.496,439.895,253.586,440.075,251.677,440.075z"/>
		<path style="fill:#251626;" d="M180.225,439.746c-3.58,0-7.16-0.634-7.388-0.675c-0.539-0.097-0.898-0.613-0.801-1.153    c0.097-0.539,0.602-0.888,1.153-0.801c0.079,0.014,8.03,1.423,11.532,0.052c0.51-0.202,1.087,0.052,1.286,0.564    c0.2,0.51-0.053,1.086-0.563,1.285C184.045,439.565,182.134,439.746,180.225,439.746z"/>
	</g>
</g>















</svg>
