<svg id="Capa_1" enable-background="new 0 0 512 512" height="512" viewBox="0 0 512 512" width="512" xmlns="http://www.w3.org/2000/svg"><g><path d="m241 240.993h30v30h-30z"/><path d="m512 301.125v-90.25h-34.653c-1.819-8.968-4.184-17.815-7.075-26.479l29.993-17.317-45.125-78.158-30.034 17.34c-6.059-6.836-12.53-13.308-19.367-19.367l17.34-30.034-78.158-45.125-17.317 29.993c-8.664-2.892-17.511-5.256-26.479-7.075v-34.653h-90.25v34.653c-8.968 1.819-17.815 4.184-26.479 7.075l-17.317-29.993-78.158 45.125 17.34 30.034c-6.836 6.059-13.308 12.53-19.367 19.367l-30.034-17.34-45.125 78.158 29.993 17.317c-2.892 8.664-5.256 17.511-7.075 26.479h-34.653v90.25h34.653c1.819 8.968 4.184 17.815 7.075 26.479l-29.993 17.317 45.125 78.158 30.034-17.34c6.059 6.836 12.53 13.308 19.367 19.367l-17.34 30.034 78.158 45.125 17.317-29.993c8.664 2.892 17.511 5.256 26.479 7.075v34.653h90.25v-34.653c8.968-1.819 17.815-4.184 26.479-7.075l17.317 29.993 78.158-45.125-17.34-30.034c6.836-6.059 13.308-12.53 19.367-19.367l30.034 17.34 45.125-78.158-29.993-17.317c2.892-8.664 5.256-17.511 7.075-26.479zm-52.716 54.776-15.125 26.197-26.21-15.132c-13.801 18.94-31.704 36.889-50.982 50.982l15.132 26.21-26.197 15.125-15.119-26.186c-21.34 9.508-45.886 16.107-69.658 18.618v30.285h-30.25v-30.283c-23.275-2.424-47.847-8.939-69.658-18.618l-15.119 26.186-26.197-15.125 15.132-26.21c-18.94-13.801-36.889-31.704-50.982-50.982l-26.21 15.132-15.125-26.197 26.186-15.119c-9.508-21.34-16.107-45.886-18.618-69.658h-30.284v-30.25h30.283c2.424-23.275 8.938-47.847 18.618-69.658l-26.186-15.119 15.125-26.197 26.21 15.132c13.801-18.94 31.704-36.889 50.982-50.982l-15.132-26.21 26.197-15.125 15.119 26.186c21.34-9.508 45.886-16.107 69.658-18.618v-30.285h30.25v30.283c23.275 2.424 47.847 8.938 69.658 18.618l15.119-26.186 26.197 15.125-15.132 26.21c18.94 13.801 36.889 31.704 50.982 50.982l26.21-15.132 15.125 26.197-26.186 15.119c9.508 21.34 16.107 45.886 18.618 69.658h30.285v30.25h-30.283c-2.424 23.275-8.939 47.847-18.618 69.658z"/><path d="m256 90.375c-91.326 0-165.625 74.299-165.625 165.625s74.299 165.625 165.625 165.625 165.625-74.299 165.625-165.625-74.299-165.625-165.625-165.625zm135.625 165.625c0 20.944-4.775 40.793-13.289 58.52l-47.86-47.86c1.006-7.067 1.006-14.253 0-21.32l47.86-47.86c8.514 17.727 13.289 37.576 13.289 58.52zm-77.105-122.336-47.86 47.86c-7.067-1.006-14.253-1.006-21.32 0l-47.86-47.86c17.727-8.514 37.576-13.289 58.52-13.289s40.793 4.775 58.52 13.289zm-132.997 132.996-47.86 47.86c-8.514-17.727-13.289-37.576-13.289-58.52s4.775-40.793 13.289-58.52l47.86 47.86c-1.005 7.067-1.005 14.253 0 21.32zm15.957 111.676 47.86-47.86c7.067 1.006 14.253 1.006 21.32 0l47.86 47.86c-17.727 8.514-37.576 13.289-58.52 13.289s-40.793-4.775-58.52-13.289zm143.082-16.384-64.484-64.485-8.358 2.23c-7.667 2.046-15.773 2.046-23.44 0l-8.358-2.23-64.484 64.485c-7.897-6.316-15.075-13.493-21.391-21.391l64.485-64.484-2.23-8.358c-2.046-7.667-2.046-15.773 0-23.44l2.23-8.358-64.485-64.484c6.316-7.897 13.493-15.075 21.391-21.391l64.484 64.485 8.358-2.23c7.667-2.046 15.773-2.046 23.44 0l8.358 2.23 64.484-64.485c7.897 6.316 15.075 13.493 21.391 21.391l-64.485 64.484 2.23 8.358c2.046 7.667 2.046 15.773 0 23.44l-2.23 8.358 64.485 64.484c-6.316 7.898-13.494 15.076-21.391 21.391z"/></g></svg>