<svg id="Capa_1" enable-background="new 0 0 512 512" height="512" viewBox="0 0 512 512" width="512" xmlns="http://www.w3.org/2000/svg"><path d="m512 288v-64h-34.285c-2.549-17.817-7.188-34.957-13.672-51.163l29.66-17.124-32-55.426-29.698 17.146c-10.961-13.904-23.534-26.477-37.438-37.438l17.146-29.698-55.426-32-17.124 29.66c-16.206-6.484-33.346-11.123-51.163-13.672v-34.285h-64v34.285c-17.817 2.549-34.957 7.188-51.163 13.672l-17.124-29.66-55.426 32 17.146 29.698c-13.904 10.961-26.477 23.534-37.438 37.438l-29.698-17.146-32 55.426 29.66 17.124c-6.484 16.206-11.123 33.346-13.672 51.163h-34.285v64h34.285c2.549 17.817 7.188 34.957 13.672 51.163l-29.66 17.124 32 55.426 29.698-17.146c10.961 13.904 23.534 26.477 37.438 37.438l-17.146 29.698 55.426 32 17.124-29.66c16.206 6.484 33.346 11.123 51.163 13.672v34.285h64v-34.285c17.817-2.549 34.957-7.188 51.163-13.672l17.124 29.66 55.426-32-17.146-29.698c13.904-10.961 26.477-23.534 37.438-37.438l29.698 17.146 32-55.426-29.66-17.124c6.484-16.206 11.123-33.346 13.672-51.163zm-256-183.138c30.156 0 58.246 8.835 81.831 24.053l-65.273 65.273c-10.838-2.892-22.279-2.892-33.116 0l-65.273-65.273c23.585-15.218 51.675-24.053 81.831-24.053zm15 136.131v30h-30v-30zm-142.085 96.838c-15.218-23.585-24.053-51.675-24.053-81.831s8.835-58.246 24.053-81.831l65.273 65.272c-2.892 10.838-2.892 22.279 0 33.116zm127.085 69.307c-30.156 0-58.246-8.835-81.831-24.053l65.273-65.273c10.838 2.892 22.279 2.892 33.116 0l65.273 65.273c-23.585 15.218-51.675 24.053-81.831 24.053zm127.085-69.307-65.273-65.272c2.892-10.838 2.892-22.279 0-33.116l65.273-65.272c15.218 23.585 24.053 51.675 24.053 81.831s-8.835 58.244-24.053 81.829z"/></svg>