<svg version="1.1" id="Capa_1" xmlns="http://www.w3.org/2000/svg" xmlns:xlink="http://www.w3.org/1999/xlink" x="0px" y="0px" viewBox="0 0 510 510" style="enable-background:new 0 0 510 510;" xml:space="preserve">
<g>
	<g>
		<path style="fill:#FFFFFF;" d="M28.884,453.434h452.232c10.429,0,18.884-8.455,18.884-18.884V44.406&#10;&#9;&#9;&#9;c0-10.429-8.455-18.884-18.884-18.884H28.884C18.455,25.522,10,33.977,10,44.406v262.369l45.448,69.041L28.884,453.434z"/>
		<path style="fill:#D2DCFD;" d="M208.043,367.499c-0.624,1.138-0.473,2.548,0.417,3.493c9.371,9.945,15.12,23.343,15.12,38.058&#10;&#9;&#9;&#9;v14.34c0,5.41-0.78,10.63-2.22,15.58c1.34,4.6,2.11,9.45,2.2,14.46H28.88l20.918-75.702L10,306.77V214.5&#10;&#9;&#9;&#9;c22.7-21.33,53.25-34.42,86.79-34.42c69.91,0,126.79,56.83,126.79,126.69C223.58,328.753,217.946,349.452,208.043,367.499z"/>
		<path style="fill:#BC9AF4;" d="M501,119.962H9V48.47c0-10.107,8.193-18.3,18.3-18.3H482.7c10.107,0,18.3,8.193,18.3,18.3V119.962z&#10;&#9;&#9;&#9;"/>
		<ellipse style="fill:#FDCB50;" cx="96.788" cy="306.775" rx="86.788" ry="86.695"/>
		<path style="fill:#FDCB50;" d="M167.997,438.974H25.58c-8.569,0-15.58-7.011-15.58-15.58V409.05c0-8.569,7.011-15.58,15.58-15.58&#10;&#9;&#9;&#9;h142.416c8.569,0,15.58,7.011,15.58,15.58v14.344C183.577,431.963,176.566,438.974,167.997,438.974z"/>
		<path style="fill:#FDCB50;" d="M167.997,484.478H25.58c-8.569,0-15.58-7.011-15.58-15.58v-14.344c0-8.569,7.011-15.58,15.58-15.58&#10;&#9;&#9;&#9;h142.416c8.569,0,15.58,7.011,15.58,15.58v14.344C183.577,477.467,176.566,484.478,167.997,484.478z"/>
		<path style="fill:#FDCB50;" d="M183.58,409.05v14.34c0,8.57-7.01,15.58-15.58,15.58c8.57,0,15.58,7.02,15.58,15.58v14.35&#10;&#9;&#9;&#9;c0,8.57-7.01,15.58-15.58,15.58H25.58c-8.57,0-15.58-7.01-15.58-15.58v-14.35c0-8.56,7.01-15.58,15.58-15.58&#10;&#9;&#9;&#9;c-8.57,0-15.58-7.01-15.58-15.58v-14.34c0-8.57,7.01-15.58,15.58-15.58H168C176.57,393.47,183.58,400.48,183.58,409.05z"/>
		<path style="fill:#FDCB50;" d="M96.79,393.47c-47.93,0-86.79-38.81-86.79-86.7c0-47.88,38.86-86.69,86.79-86.69&#10;&#9;&#9;&#9;c47.93,0,86.79,38.81,86.79,86.69C183.58,354.66,144.72,393.47,96.79,393.47z"/>
	</g>
	<g>
		
			<line style="fill:none;stroke:#6864F7;stroke-width:20;stroke-linecap:round;stroke-linejoin:round;stroke-miterlimit:10;" x1="454.471" y1="69.548" x2="454.471" y2="69.548"/>
		
			<line style="fill:none;stroke:#6864F7;stroke-width:20;stroke-linecap:round;stroke-linejoin:round;stroke-miterlimit:10;" x1="411.851" y1="69.548" x2="411.851" y2="69.548"/>
		
			<line style="fill:none;stroke:#6864F7;stroke-width:20;stroke-linecap:round;stroke-linejoin:round;stroke-miterlimit:10;" x1="369.23" y1="69.548" x2="369.23" y2="69.548"/>
		<path style="fill:none;stroke:#052A75;stroke-width:20;stroke-linecap:round;stroke-linejoin:round;stroke-miterlimit:10;" d="&#10;&#9;&#9;&#9;M185.452,453.434h295.664c10.429,0,18.884-8.455,18.884-18.884V44.406c0-10.429-8.455-18.884-18.884-18.884H28.884&#10;&#9;&#9;&#9;C18.455,25.522,10,33.977,10,44.406v262.369"/>
		
			<line style="fill:none;stroke:#052A75;stroke-width:20;stroke-linecap:round;stroke-linejoin:round;stroke-miterlimit:10;" x1="495.682" y1="114.949" x2="14.153" y2="114.949"/>
		<g>
			
				<polyline style="fill:none;stroke:#91B706;stroke-width:20;stroke-linecap:round;stroke-linejoin:round;stroke-miterlimit:10;" points="&#10;&#9;&#9;&#9;&#9;168.906,254.18 189.188,233.898 232.581,277.291 341.59,168.281 400.919,227.61 444.607,185.35 &#9;&#9;&#9;"/>
			
				<line style="fill:none;stroke:#6864F7;stroke-width:20;stroke-linecap:round;stroke-linejoin:round;stroke-miterlimit:10;" x1="285.825" y1="285.291" x2="285.825" y2="345.082"/>
			
				<line style="fill:none;stroke:#6864F7;stroke-width:20;stroke-linecap:round;stroke-linejoin:round;stroke-miterlimit:10;" x1="401.312" y1="277.291" x2="401.312" y2="345.082"/>
			
				<line style="fill:none;stroke:#6864F7;stroke-width:20;stroke-linecap:round;stroke-linejoin:round;stroke-miterlimit:10;" x1="341.539" y1="231.803" x2="341.539" y2="336.236"/>
			
				<line style="fill:none;stroke:#6864F7;stroke-width:20;stroke-linecap:round;stroke-linejoin:round;stroke-miterlimit:10;" x1="231.042" y1="317.102" x2="231.042" y2="345.082"/>
		</g>
		
			<line style="fill:none;stroke:#052A75;stroke-width:20;stroke-linecap:round;stroke-linejoin:round;stroke-miterlimit:10;" x1="448.876" y1="345.082" x2="177.197" y2="345.082"/>
		<g>
			
				<ellipse style="fill:none;stroke:#052A75;stroke-width:20;stroke-linecap:round;stroke-linejoin:round;stroke-miterlimit:10;" cx="96.788" cy="306.775" rx="86.788" ry="86.695"/>
			<path style="fill:none;stroke:#052A75;stroke-width:20;stroke-linecap:round;stroke-linejoin:round;stroke-miterlimit:10;" d="&#10;&#9;&#9;&#9;&#9;M167.997,438.974H25.58c-8.569,0-15.58-7.011-15.58-15.58V409.05c0-8.569,7.011-15.58,15.58-15.58h142.416&#10;&#9;&#9;&#9;&#9;c8.569,0,15.58,7.011,15.58,15.58v14.344C183.577,431.963,176.566,438.974,167.997,438.974z"/>
			<path style="fill:none;stroke:#052A75;stroke-width:20;stroke-linecap:round;stroke-linejoin:round;stroke-miterlimit:10;" d="&#10;&#9;&#9;&#9;&#9;M167.997,438.974c8.569,0,15.58,7.011,15.58,15.58v14.344c0,8.569-7.011,15.58-15.58,15.58H25.58&#10;&#9;&#9;&#9;&#9;c-8.569,0-15.58-7.011-15.58-15.58v-14.344c0-8.569,7.011-15.58,15.58-15.58"/>
			<g>
				<g>
					<path style="fill:none;stroke:#FD8F01;stroke-width:20;stroke-linecap:round;stroke-linejoin:round;stroke-miterlimit:10;" d="&#10;&#9;&#9;&#9;&#9;&#9;&#9;M109.164,278.077c0,0-7.494-6.905-19.045-3.429c-10.606,3.192-13.083,16.902-6.033,23.335&#10;&#9;&#9;&#9;&#9;&#9;&#9;c5.016,4.578,10.089,5.147,18.758,8.872c17.993,7.731,11.84,33.094-7.267,33.221c-7.456,0.05-10.942-0.423-17.492-4.703"/>
					
						<line style="fill:none;stroke:#FD8F01;stroke-width:20;stroke-linecap:round;stroke-linejoin:round;stroke-miterlimit:10;" x1="95.577" y1="263.493" x2="95.577" y2="273.443"/>
					
						<line style="fill:none;stroke:#FD8F01;stroke-width:20;stroke-linecap:round;stroke-linejoin:round;stroke-miterlimit:10;" x1="95.577" y1="340.107" x2="95.577" y2="350.057"/>
				</g>
			</g>
		</g>
		
			<polyline style="fill:none;stroke:#91B706;stroke-width:20;stroke-linecap:round;stroke-linejoin:round;stroke-miterlimit:10;" points="&#10;&#9;&#9;&#9;448.876,208.109 446.608,180.351 417.822,183.191 &#9;&#9;"/>
	</g>
</g>
<g>
</g>
<g>
</g>
<g>
</g>
<g>
</g>
<g>
</g>
<g>
</g>
<g>
</g>
<g>
</g>
<g>
</g>
<g>
</g>
<g>
</g>
<g>
</g>
<g>
</g>
<g>
</g>
<g>
</g>
</svg>