<svg id="Capa_1" enable-background="new 0 0 512.001 512.001" viewBox="0 0 512.001 512.001" xmlns="http://www.w3.org/2000/svg"><g><g><path d="m77.726 147.882v-21.446c0-32.609 13.598-62.198 35.411-83.378 17.204-16.726 39.519-28.214 64.304-31.836 5.493-.803 11.118-1.224 16.832-1.224 7.12 0 14.1.642 20.869 1.886 23.38 4.264 44.379 15.572 60.719 31.605 21.542 21.151 34.959 50.559 34.959 82.947v19.437z" fill="#d46b5c"/><path d="m352.361 375.902c-3.915-19.355-18.326-34.275-36.508-37.795l-21.512-4.165s-48.515-22.601-48.516-22.601c-3.449-4.901-6.064-10.534-7.616-16.676l-7.605-30.099h-72.662l-7.605 30.099c-1.552 6.141-4.167 11.775-7.616 16.675l-48.515 22.601-21.512 4.165c-18.182 3.521-32.593 18.44-36.508 37.795l-25.502 126.095s367.178.001 367.178 0z" fill="#fdbeb9"/><path d="m240.282 303.008c-14.336 6.412-30.205 9.971-46.89 9.971-16.715 0-32.614-3.569-46.971-10.001 1.149-2.601 2.087-5.323 2.803-8.156l7.642-30.225h72.962l7.632 30.225c.715 2.843 1.663 5.585 2.822 8.186z" fill="#fd7da0"/><path d="m114.483 144.865c17.726-7.134 31.389-22.947 35.004-42.161l11.247 5.356c21.477 10.227 46.43 10.139 67.834-.239l11.567-5.608c3.485 19.445 16.136 35.458 34.022 42.652v52.811c0 44.147-35.744 79.935-79.837 79.935-44.093 0-79.837-35.788-79.837-79.935z" fill="#fdbeb9"/><path d="m352.361 375.902c-3.915-19.355-18.326-34.275-36.508-37.795l-21.512-4.165-100.102 15.46-100.033-15.46-21.512 4.165c-18.182 3.521-32.593 18.44-36.508 37.795l-25.502 126.094s367.178.001 367.178 0z" fill="#d2dcfd"/><path d="m377.865 501.997h-88.078c-3.329-13.779-3.38-31.154-.152-45.044.099-.426.102-.86.009-1.287-4.896-22.378-3.564-50.849 13.021-67.637.931-.943 1.099-2.386.462-3.548-8.201-14.961-13.481-31.743-15.066-49.563l6.275-.974c24.222 3.281 48.74 9.55 56.609 36.51.563 1.765 26.92 131.543 26.92 131.543z" fill="#93b2f4"/><path d="m234.089 373.331-26.142 48.353h-27.346l-26.212-48.481 39.85-23.801z" fill="#db4b86"/><path d="m157.752 499.802 22.849-78.118h27.346l22.848 78.118z" fill="#db4b86"/><path d="m290.976 144.885c19.286 0 34.92 15.653 34.92 34.962 0 19.309-15.634 34.962-34.92 34.962h-193.405c-19.286 0-34.92-15.653-34.92-34.962 0-19.309 15.634-34.962 34.92-34.962z" fill="#fdbeb9"/><path d="m260.945 387.466 29.87-45.64c7.09-10.832.286-25.345-12.566-26.805l-32.419-3.684-51.556 38.065z" fill="#fff"/><path d="m127.602 387.466-30.164-46.089c-6.955-10.627-.281-24.863 12.328-26.296l32.951-3.744 51.556 38.065z" fill="#fff"/><g fill="#fdcb50"><ellipse cx="414.862" cy="323.569" rx="87.138" ry="87.049"/><path d="m486.42 456.307h-143.116c-8.569 0-15.58-7.011-15.58-15.58v-14.529c0-8.569 7.011-15.58 15.58-15.58h143.116c8.569 0 15.58 7.011 15.58 15.58v14.529c0 8.569-7.011 15.58-15.58 15.58z"/><path d="m486.42 501.997h-143.116c-8.569 0-15.58-7.011-15.58-15.58v-14.529c0-8.569 7.011-15.58 15.58-15.58h143.116c8.569 0 15.58 7.011 15.58 15.58v14.529c0 8.569-7.011 15.58-15.58 15.58z"/></g><circle cx="32.21" cy="276.606" fill="#b1d952" r="22.211"/></g><g><path d="m424.89 314.461c-3.008-1.292-5.554-2.215-7.801-3.029-4.338-1.572-6.336-2.34-8.24-4.078-.667-.608-.92-1.965-.616-3.3.211-.931.859-2.58 2.814-3.168 5.204-1.565 8.656.631 9.59 1.341 4.395 3.342 10.67 2.489 14.013-1.908 3.343-4.396 2.488-10.67-1.908-14.013-1.383-1.052-4.558-3.181-9.096-4.594v-1.602c0-5.523-4.477-10-10-10s-10 4.477-10 10v2.184c-7.554 2.864-13.072 9.226-14.915 17.323-1.913 8.405.63 17.03 6.635 22.51 4.917 4.488 9.771 6.247 14.908 8.109 2.087.756 4.246 1.539 6.719 2.601 4.936 2.121 4.978 5.874 4.563 7.922-.606 2.999-3.021 6.214-7.978 6.247-6.132.037-7.574-.185-12.026-3.094-4.623-3.021-10.82-1.722-13.841 2.901s-1.723 10.82 2.901 13.841c4.901 3.203 8.816 4.842 13.033 5.647v.725c0 5.523 4.477 10 10 10s10-4.477 10-10v-1.833c8.849-3.289 15.561-10.811 17.515-20.469 2.591-12.806-3.948-24.968-16.27-30.263z" fill="#fd8f01"/><g fill="#91b706"><path d="m123.192 237.009-39.416 29.597h-28.458c-5.523 0-10 4.477-10 10s4.477 10 10 10h31.794c2.166 0 4.273-.703 6.004-2.003l42.084-31.601c4.417-3.316 5.309-9.585 1.992-14.001-3.315-4.417-9.584-5.308-14-1.992z"/><path d="m511.989 63.535c.252-5.016-3.731-9.674-8.712-10.246l-29.101-3.747c-5.479-.711-10.489 3.164-11.195 8.641s3.164 10.49 8.641 11.195l5.584.719-62.261 49.346-46.244-54.971c-3.417-4.062-9.413-4.747-13.657-1.559l-50.738 38.098c-4.417 3.316-5.309 9.584-1.992 14.001s9.585 5.308 14.001 1.992l43.172-32.417 46.405 55.163c1.975 2.347 4.804 3.563 7.658 3.563 2.178 0 4.371-.709 6.206-2.164l68.711-54.458-.763 5.228c-.797 5.465 2.986 10.542 8.451 11.339.49.072.976.106 1.457.106 4.883 0 9.157-3.583 9.882-8.558l4.4-30.157c.04-.369.078-.742.095-1.114z"/></g><g fill="#052a75"><path d="m486.42 400.618h-12.57c23.176-17.753 38.15-45.685 38.15-77.049 0-53.513-43.576-97.049-97.138-97.049s-97.138 43.536-97.138 97.049c0 1.59.049 3.169.125 4.741-.032-.006-.063-.014-.095-.021l-14.98-2.901c-.424-1.609-.991-3.196-1.716-4.741-4.069-8.665-12.173-14.482-21.679-15.562l-27.645-3.142c-1.672-3.03-2.958-6.286-3.828-9.729l-4.813-19.048c17.308-11.245 30.523-28.286 36.882-48.356h11.002c24.769 0 44.919-20.17 44.919-44.963 0-13.343-5.843-25.341-15.095-33.583.005-.131.02-.26.02-.393v-19.437c0-34.061-13.479-66.053-37.955-90.084-18.247-17.903-41.045-29.766-65.916-34.302-13.307-2.446-27.347-2.71-40.954-.722-26.395 3.857-50.541 15.809-69.825 34.557-24.792 24.073-38.445 56.231-38.445 90.552v19.847c-9.241 8.241-15.075 20.232-15.075 33.566 0 24.792 20.151 44.962 44.92 44.962h11.095c6.349 20.04 19.534 37.059 36.803 48.304l-4.826 19.101c-.87 3.441-2.155 6.698-3.828 9.728l-28.177 3.202c-9.391 1.067-17.397 6.814-21.417 15.375-.754 1.605-1.342 3.256-1.767 4.93l-14.66 2.839c-22.242 4.307-39.673 22.218-44.409 45.63l-25.502 126.095c-.594 2.94.162 5.992 2.062 8.314s4.741 3.668 7.74 3.668c99.026 0 381.016.001 475.672.001 14.14 0 25.644-11.503 25.644-25.644v-14.402c0-5.876-1.992-11.294-5.329-15.623 3.337-4.321 5.329-9.732 5.329-15.601v-14.529c-.001-14.105-11.476-25.58-25.581-25.58zm-71.558-154.099c42.534 0 77.138 34.564 77.138 77.049s-34.604 77.049-77.138 77.049-77.138-34.564-77.138-77.049 34.604-77.049 77.138-77.049zm-166.256 75.198 28.513 3.24c3.685.419 5.308 3.071 5.834 4.192.528 1.125 1.537 4.08-.506 7.201l-24.717 37.766-45.168-25.788zm-27.467 54.538-19.155 35.429h-15.423l-19.154-35.429 26.866-15.339zm-65.278-67.644c1.757-3.654 3.161-7.493 4.172-11.496l3.754-14.857c9.537 3.461 19.818 5.352 30.533 5.352 10.684 0 20.936-1.88 30.448-5.322l3.746 14.826c1.011 4.003 2.416 7.842 4.172 11.497l-38.413 28.361zm160.035-128.763c0 13.764-11.179 24.962-24.919 24.962h-7.102c.185-2.355.283-4.734.283-7.135v-42.79h6.82c13.739 0 24.918 11.198 24.918 24.963zm-218.325 24.962c-13.741 0-24.92-11.198-24.92-24.963 0-13.764 11.179-24.962 24.92-24.962h6.912v42.79c0 2.401.097 4.781.283 7.135zm0-69.925c-3.382 0-6.674.388-9.845 1.101v-9.551c0-28.867 11.499-55.93 32.382-76.208 16.251-15.8 36.577-25.867 58.78-29.111 11.456-1.675 23.268-1.453 34.46.605 20.934 3.818 40.129 13.813 55.508 28.903 20.613 20.238 31.965 47.162 31.965 75.811v9.551c-3.17-.713-6.462-1.101-9.844-1.101h-14.68c-13.744-6.161-23.534-18.898-26.319-34.437-.552-3.082-2.516-5.727-5.306-7.147s-6.083-1.453-8.9-.087l-11.566 5.608c-18.771 9.102-40.338 9.177-59.172.209l-11.247-5.356c-2.801-1.335-6.064-1.292-8.83.113-2.766 1.406-4.723 4.017-5.297 7.066-2.795 14.856-13.197 27.735-27.313 34.03h-14.776zm26.912 62.79v-46.44c14.195-7.494 25.34-19.868 31.249-34.482 24.736 12.056 53.363 11.933 78-.322 5.701 15.018 16.424 27.342 30.425 34.793v46.451c0 38.562-31.329 69.935-69.837 69.935s-69.837-31.373-69.837-69.935zm-19.16 131.347c.502-1.071 2.052-3.604 5.573-4.004l29.045-3.301 36.043 26.611-45.168 25.788-25.011-38.215c-1.951-2.981-.987-5.803-.482-6.879zm44.293 162.974h-126.707l23.079-114.112c3.123-15.439 14.352-27.2 28.607-29.96l13.534-2.621c1.747 3.016 29.5 45.058 31.106 47.639 1.911 2.92 5.104 4.525 8.375 4.525 1.684 0 3.39-.426 4.95-1.317l17.474-9.976 19.815 36.649zm20.838 0 17.641-60.312h12.358l17.641 60.312zm152.599-35.668c-3.337 4.329-5.329 9.747-5.329 15.623v14.402c0 1.939.224 3.826.633 5.643h-79.427l-20.232-69.173 19.815-36.649 17.474 9.976c1.561.892 3.266 1.317 4.95 1.317 3.271 0 6.464-1.605 8.375-4.525 0 0 30.687-46.969 31.055-47.649 5.284 1.178 16.36 2.595 21.131 5.059 5.825 20.228 18.064 37.769 34.375 50.264h-12.569c-14.105 0-25.58 11.475-25.58 25.58v14.529c0 5.871 1.992 11.282 5.329 15.603zm168.947 30.025c0 3.059-2.584 5.644-5.644 5.644h-142.988c-3.059 0-5.644-2.584-5.644-5.644v-14.402c0-3.059 2.584-5.644 5.644-5.644h142.989c3.059 0 5.644 2.584 5.644 5.644v14.402zm0-45.626c0 3.025-2.555 5.581-5.58 5.581h-143.116c-3.025 0-5.58-2.556-5.58-5.581v-14.529c0-3.025 2.555-5.58 5.58-5.58h143.116c3.025 0 5.58 2.555 5.58 5.58z"/><path d="m32.21 308.817c17.761 0 32.21-14.45 32.21-32.211 0-17.762-14.45-32.212-32.21-32.212s-32.21 14.45-32.21 32.212c0 17.761 14.45 32.211 32.21 32.211zm0-44.423c6.733 0 12.21 5.478 12.21 12.212 0 6.733-5.478 12.211-12.21 12.211s-12.21-5.478-12.21-12.211c0-6.734 5.478-12.212 12.21-12.212z"/></g></g></g><g/><g/><g/><g/><g/><g/><g/><g/><g/><g/><g/><g/><g/><g/><g/></svg>